# xmcd
#
# Track frame offsets:
#	150
#	19105
#	35700
#	53550
#	71165
#	87990
#	106920
#	123410
#	141345
#	158960
#
# Disc length: 2344 seconds
#
# Revision: 0
# Processed by: cddbd v1.5.2PL0 Copyright (c) Steve Scherf et al.
# Submitted via: audiograbber 1.83.01
#
DISCID=8909260a
DTITLE=Various Artist - 1315G Country '99 V.1
DYEAR=1997
DGENRE=Country
TTITLE0=Faith Hill - Love Ain't Like That
TTITLE1=The Wilkinsons - Fly (The Angel Song)
TTITLE2=Shania Twain - That Don't Impress Me Much
TTITLE3=JoDee Mesina - Stand Beside Me
TTITLE4=Dixies Chicks - You Were Mine
TTITLE5=Faith Hill - Love Ain't Like That - Vocals
TTITLE6=The Wilkinsons - Fly (The Angel Song):  Vocals
TTITLE7=Shania Twain - That Don't Impress Me Much: Vocals
TTITLE8=JoDee Mesina - Stand Beside Me: Vocals
TTITLE9=Dixie Chicks - You Were Mine: Vocals
EXTD=
EXTT0=
EXTT1=
EXTT2=
EXTT3=
EXTT4=
EXTT5=
EXTT6=
EXTT7=
EXTT8=
EXTT9=
PLAYORDER=
